<svg xmlns="http://www.w3.org/2000/svg" width="29.457" height="15.054" viewBox="0 0 29.457 15.054"><defs><style>.a{fill:#fff;stroke:#58d3f0;}</style></defs><g transform="translate(0.5 0.619)"><g transform="translate(0 0)"><path class="a" d="M122.859,322.8l4.372-4.441a1.031,1.031,0,0,0-.01-1.456l-6.323-6.255a5.244,5.244,0,0,0-6.188-.831,9.227,9.227,0,0,1-2.723.925,3.091,3.091,0,0,0-2.392,4.225,13.4,13.4,0,0,1-5.645-1.617,3.8,3.8,0,0,0-4.485.642,1.031,1.031,0,0,0,0,1.458l.036.036a19.812,19.812,0,0,0,13.7,5.655,16.968,16.968,0,0,0,2.634-.2,6.545,6.545,0,0,1,5.537,1.847l.02.02A1.031,1.031,0,0,0,122.859,322.8Zm-7.341-3.9a17.444,17.444,0,0,1-13.547-3.945,1.709,1.709,0,0,1,.989.2,15.569,15.569,0,0,0,13.742.561,1.031,1.031,0,0,0-.839-1.883,13.343,13.343,0,0,1-3.375.994,1.023,1.023,0,0,1-1.061-1.04,1.047,1.047,0,0,1,.913-1.016,11.283,11.283,0,0,0,3.33-1.131,3.2,3.2,0,0,1,3.776.468l5.6,5.536-2.966,3.012A8.624,8.624,0,0,0,115.518,318.9Z" transform="translate(-99.163 -309.17)"/></g></g></svg>